<mxfile host="app.diagrams.net" modified="2023-08-25T16:44:29.297Z" agent="Mozilla/5.0 (X11; Linux x86_64; rv:109.0) Gecko/20100101 Firefox/111.0" etag="NFQBhIX-TAA2Xebsp8o6" version="21.6.9" type="github">
  <diagram id="R2lEEEUBdFMjLlhIrx00" name="Page-1">
    <mxGraphModel dx="1434" dy="678" grid="1" gridSize="10" guides="1" tooltips="1" connect="1" arrows="1" fold="1" page="1" pageScale="1" pageWidth="850" pageHeight="1100" math="0" shadow="0" extFonts="Permanent Marker^https://fonts.googleapis.com/css?family=Permanent+Marker">
      <root>
        <mxCell id="0" />
        <mxCell id="1" parent="0" />
        <mxCell id="kHfchB5gfLmfq0_nhfpa-3" value="" style="edgeStyle=orthogonalEdgeStyle;rounded=0;orthogonalLoop=1;jettySize=auto;html=1;" edge="1" parent="1" source="kHfchB5gfLmfq0_nhfpa-1" target="kHfchB5gfLmfq0_nhfpa-2">
          <mxGeometry relative="1" as="geometry" />
        </mxCell>
        <mxCell id="kHfchB5gfLmfq0_nhfpa-1" value="&lt;div&gt;DEPARTAMENTO&lt;/div&gt;" style="rounded=1;whiteSpace=wrap;html=1;" vertex="1" parent="1">
          <mxGeometry x="40" y="80" width="120" height="60" as="geometry" />
        </mxCell>
        <mxCell id="kHfchB5gfLmfq0_nhfpa-5" value="" style="edgeStyle=orthogonalEdgeStyle;rounded=0;orthogonalLoop=1;jettySize=auto;html=1;" edge="1" parent="1" source="kHfchB5gfLmfq0_nhfpa-2" target="kHfchB5gfLmfq0_nhfpa-4">
          <mxGeometry relative="1" as="geometry" />
        </mxCell>
        <mxCell id="kHfchB5gfLmfq0_nhfpa-2" value="CONTROLE" style="rhombus;whiteSpace=wrap;html=1;rounded=1;" vertex="1" parent="1">
          <mxGeometry x="260" y="70" width="80" height="80" as="geometry" />
        </mxCell>
        <mxCell id="kHfchB5gfLmfq0_nhfpa-7" value="" style="edgeStyle=orthogonalEdgeStyle;rounded=0;orthogonalLoop=1;jettySize=auto;html=1;" edge="1" parent="1" source="kHfchB5gfLmfq0_nhfpa-4" target="kHfchB5gfLmfq0_nhfpa-6">
          <mxGeometry relative="1" as="geometry" />
        </mxCell>
        <mxCell id="kHfchB5gfLmfq0_nhfpa-4" value="FUNCIONÁRIO" style="whiteSpace=wrap;html=1;rounded=1;" vertex="1" parent="1">
          <mxGeometry x="400" y="80" width="120" height="60" as="geometry" />
        </mxCell>
        <mxCell id="kHfchB5gfLmfq0_nhfpa-9" value="" style="edgeStyle=orthogonalEdgeStyle;rounded=0;orthogonalLoop=1;jettySize=auto;html=1;" edge="1" parent="1" source="kHfchB5gfLmfq0_nhfpa-6" target="kHfchB5gfLmfq0_nhfpa-8">
          <mxGeometry relative="1" as="geometry" />
        </mxCell>
        <mxCell id="kHfchB5gfLmfq0_nhfpa-6" value="PERTENCE" style="rhombus;whiteSpace=wrap;html=1;rounded=1;" vertex="1" parent="1">
          <mxGeometry x="620" y="70" width="80" height="80" as="geometry" />
        </mxCell>
        <mxCell id="kHfchB5gfLmfq0_nhfpa-11" value="" style="edgeStyle=orthogonalEdgeStyle;rounded=0;orthogonalLoop=1;jettySize=auto;html=1;" edge="1" parent="1" source="kHfchB5gfLmfq0_nhfpa-8" target="kHfchB5gfLmfq0_nhfpa-10">
          <mxGeometry relative="1" as="geometry" />
        </mxCell>
        <mxCell id="kHfchB5gfLmfq0_nhfpa-18" style="edgeStyle=orthogonalEdgeStyle;rounded=0;orthogonalLoop=1;jettySize=auto;html=1;" edge="1" parent="1" source="kHfchB5gfLmfq0_nhfpa-8" target="kHfchB5gfLmfq0_nhfpa-16">
          <mxGeometry relative="1" as="geometry" />
        </mxCell>
        <mxCell id="kHfchB5gfLmfq0_nhfpa-8" value="PROJETO" style="whiteSpace=wrap;html=1;rounded=1;" vertex="1" parent="1">
          <mxGeometry x="760" y="80" width="120" height="60" as="geometry" />
        </mxCell>
        <mxCell id="kHfchB5gfLmfq0_nhfpa-13" value="" style="edgeStyle=orthogonalEdgeStyle;rounded=0;orthogonalLoop=1;jettySize=auto;html=1;" edge="1" parent="1" source="kHfchB5gfLmfq0_nhfpa-10" target="kHfchB5gfLmfq0_nhfpa-12">
          <mxGeometry relative="1" as="geometry" />
        </mxCell>
        <mxCell id="kHfchB5gfLmfq0_nhfpa-10" value="UTILIZA" style="rhombus;whiteSpace=wrap;html=1;rounded=1;" vertex="1" parent="1">
          <mxGeometry x="780" y="210" width="80" height="80" as="geometry" />
        </mxCell>
        <mxCell id="kHfchB5gfLmfq0_nhfpa-15" value="" style="edgeStyle=orthogonalEdgeStyle;rounded=0;orthogonalLoop=1;jettySize=auto;html=1;" edge="1" parent="1" source="kHfchB5gfLmfq0_nhfpa-12" target="kHfchB5gfLmfq0_nhfpa-14">
          <mxGeometry relative="1" as="geometry" />
        </mxCell>
        <mxCell id="kHfchB5gfLmfq0_nhfpa-20" value="" style="edgeStyle=orthogonalEdgeStyle;rounded=0;orthogonalLoop=1;jettySize=auto;html=1;" edge="1" parent="1" source="kHfchB5gfLmfq0_nhfpa-12" target="kHfchB5gfLmfq0_nhfpa-19">
          <mxGeometry relative="1" as="geometry" />
        </mxCell>
        <mxCell id="kHfchB5gfLmfq0_nhfpa-12" value="PEÇA" style="whiteSpace=wrap;html=1;rounded=1;" vertex="1" parent="1">
          <mxGeometry x="760" y="380" width="120" height="60" as="geometry" />
        </mxCell>
        <mxCell id="kHfchB5gfLmfq0_nhfpa-17" value="" style="edgeStyle=orthogonalEdgeStyle;rounded=0;orthogonalLoop=1;jettySize=auto;html=1;" edge="1" parent="1" source="kHfchB5gfLmfq0_nhfpa-14" target="kHfchB5gfLmfq0_nhfpa-16">
          <mxGeometry relative="1" as="geometry" />
        </mxCell>
        <mxCell id="kHfchB5gfLmfq0_nhfpa-14" value="ATENDE" style="rhombus;whiteSpace=wrap;html=1;rounded=1;" vertex="1" parent="1">
          <mxGeometry x="980" y="370" width="80" height="80" as="geometry" />
        </mxCell>
        <mxCell id="kHfchB5gfLmfq0_nhfpa-29" style="edgeStyle=orthogonalEdgeStyle;rounded=0;orthogonalLoop=1;jettySize=auto;html=1;entryX=1;entryY=0.5;entryDx=0;entryDy=0;" edge="1" parent="1" source="kHfchB5gfLmfq0_nhfpa-16" target="kHfchB5gfLmfq0_nhfpa-10">
          <mxGeometry relative="1" as="geometry" />
        </mxCell>
        <mxCell id="kHfchB5gfLmfq0_nhfpa-16" value="FORNECEDOR" style="whiteSpace=wrap;html=1;rounded=1;" vertex="1" parent="1">
          <mxGeometry x="960" y="220" width="120" height="60" as="geometry" />
        </mxCell>
        <mxCell id="kHfchB5gfLmfq0_nhfpa-22" value="" style="edgeStyle=orthogonalEdgeStyle;rounded=0;orthogonalLoop=1;jettySize=auto;html=1;" edge="1" parent="1" source="kHfchB5gfLmfq0_nhfpa-19" target="kHfchB5gfLmfq0_nhfpa-21">
          <mxGeometry relative="1" as="geometry" />
        </mxCell>
        <mxCell id="kHfchB5gfLmfq0_nhfpa-19" value="CONTÊM" style="rhombus;whiteSpace=wrap;html=1;rounded=1;" vertex="1" parent="1">
          <mxGeometry x="780" y="510" width="80" height="80" as="geometry" />
        </mxCell>
        <mxCell id="kHfchB5gfLmfq0_nhfpa-21" value="DEPÓSITO" style="whiteSpace=wrap;html=1;rounded=1;" vertex="1" parent="1">
          <mxGeometry x="920" y="520" width="120" height="60" as="geometry" />
        </mxCell>
        <mxCell id="kHfchB5gfLmfq0_nhfpa-23" value="1" style="text;html=1;strokeColor=none;fillColor=none;align=center;verticalAlign=middle;whiteSpace=wrap;rounded=0;" vertex="1" parent="1">
          <mxGeometry x="180" y="80" width="60" height="30" as="geometry" />
        </mxCell>
        <mxCell id="kHfchB5gfLmfq0_nhfpa-24" value="n" style="text;html=1;strokeColor=none;fillColor=none;align=center;verticalAlign=middle;whiteSpace=wrap;rounded=0;" vertex="1" parent="1">
          <mxGeometry x="340" y="80" width="60" height="30" as="geometry" />
        </mxCell>
        <mxCell id="kHfchB5gfLmfq0_nhfpa-25" value="1" style="text;html=1;strokeColor=none;fillColor=none;align=center;verticalAlign=middle;whiteSpace=wrap;rounded=0;" vertex="1" parent="1">
          <mxGeometry x="540" y="80" width="60" height="30" as="geometry" />
        </mxCell>
        <mxCell id="kHfchB5gfLmfq0_nhfpa-26" value="n" style="text;html=1;strokeColor=none;fillColor=none;align=center;verticalAlign=middle;whiteSpace=wrap;rounded=0;" vertex="1" parent="1">
          <mxGeometry x="690" y="80" width="60" height="30" as="geometry" />
        </mxCell>
        <mxCell id="kHfchB5gfLmfq0_nhfpa-27" value="1" style="text;html=1;strokeColor=none;fillColor=none;align=center;verticalAlign=middle;whiteSpace=wrap;rounded=0;" vertex="1" parent="1">
          <mxGeometry x="820" y="160" width="60" height="30" as="geometry" />
        </mxCell>
        <mxCell id="kHfchB5gfLmfq0_nhfpa-28" value="n" style="text;html=1;strokeColor=none;fillColor=none;align=center;verticalAlign=middle;whiteSpace=wrap;rounded=0;" vertex="1" parent="1">
          <mxGeometry x="880" y="220" width="60" height="30" as="geometry" />
        </mxCell>
        <mxCell id="kHfchB5gfLmfq0_nhfpa-30" value="1" style="text;html=1;strokeColor=none;fillColor=none;align=center;verticalAlign=middle;whiteSpace=wrap;rounded=0;" vertex="1" parent="1">
          <mxGeometry x="960" y="320" width="60" height="30" as="geometry" />
        </mxCell>
        <mxCell id="kHfchB5gfLmfq0_nhfpa-31" value="n" style="text;html=1;strokeColor=none;fillColor=none;align=center;verticalAlign=middle;whiteSpace=wrap;rounded=0;" vertex="1" parent="1">
          <mxGeometry x="900" y="380" width="60" height="30" as="geometry" />
        </mxCell>
        <mxCell id="kHfchB5gfLmfq0_nhfpa-32" value="1" style="text;html=1;strokeColor=none;fillColor=none;align=center;verticalAlign=middle;whiteSpace=wrap;rounded=0;" vertex="1" parent="1">
          <mxGeometry x="760" y="160" width="60" height="30" as="geometry" />
        </mxCell>
        <mxCell id="kHfchB5gfLmfq0_nhfpa-33" value="n" style="text;html=1;strokeColor=none;fillColor=none;align=center;verticalAlign=middle;whiteSpace=wrap;rounded=0;" vertex="1" parent="1">
          <mxGeometry x="760" y="310" width="60" height="30" as="geometry" />
        </mxCell>
        <mxCell id="kHfchB5gfLmfq0_nhfpa-34" value="n" style="text;html=1;strokeColor=none;fillColor=none;align=center;verticalAlign=middle;whiteSpace=wrap;rounded=0;" vertex="1" parent="1">
          <mxGeometry x="820" y="460" width="60" height="30" as="geometry" />
        </mxCell>
        <mxCell id="kHfchB5gfLmfq0_nhfpa-35" value="1" style="text;html=1;strokeColor=none;fillColor=none;align=center;verticalAlign=middle;whiteSpace=wrap;rounded=0;" vertex="1" parent="1">
          <mxGeometry x="850" y="520" width="60" height="30" as="geometry" />
        </mxCell>
      </root>
    </mxGraphModel>
  </diagram>
</mxfile>
